<?xml version="1.0" encoding="UTF-8"?>
<svg version="1.2" baseProfile="tiny-ps"
  xmlns="http://www.w3.org/2000/svg"
  viewBox="0 0 37 40"
  width="37" height="40"
  title="The M Nutrifit">
<path d="M17.8024 33.6857C17.7338 33.5962 17.5349 33.184 17.3597 32.7695C17.0038 31.9261 16.5565 31.1781 15.8182 30.1896L15.3192 29.5219L15.3185 22.5401C15.3178 14.9627 15.2744 14.2752 14.6769 12.3706C14.2603 11.0433 13.3978 9.39675 12.4822 8.18043C10.4223 5.44383 6.66208 3.20783 3.90309 3.07904L3.0916 3.04097L3.06206 13.2694C3.03413 22.9104 3.02097 23.4975 2.83033 23.4964C2.56976 23.495 1.21888 22.4806 0.673041 21.8766L0.250905 21.4092L0.280448 10.8344L0.309989 0.259359L2.04861 0.28959C3.8687 0.321209 3.81539 0.311059 6.50329 1.12994C7.84516 1.53869 9.73519 2.46812 10.8661 3.275C13.5443 5.18626 15.7695 8.04726 16.8584 10.9803C17.4395 12.5449 17.7537 14.2182 17.8815 16.4276C18.0352 19.0915 17.9676 33.9015 17.8024 33.6857Z" fill="#5B7D42"/>
<path d="M14.7396 38.108C10.6694 37.4836 7.65331 35.9599 5.08312 33.2295C3.55291 31.6042 2.5547 30.0502 1.58211 27.7794C0.924325 26.2437 0.480725 24.0633 0.860622 24.2336C2.0894 24.7852 3.10608 25.121 3.88388 25.2325C9.00119 25.9658 13.2412 28.7398 15.7971 33.0262C16.5174 34.2344 17.4263 36.4123 17.6493 37.464C17.7303 37.8465 17.8522 38.1977 17.9198 38.2446C18.1483 38.4027 16.0824 38.3138 14.7396 38.108ZM14.1199 35.2578C14.2595 34.8938 13.1071 33.0038 12.0801 31.9123C10.2897 30.0101 7.79433 28.5399 5.37208 27.9603C4.19315 27.6783 4.11837 27.7799 4.69814 28.878C5.33423 30.0826 6.11895 31.0856 7.30065 32.2043C8.42696 33.2706 9.38893 33.891 10.9618 34.5656C12.9061 35.3997 13.9754 35.6342 14.1199 35.2578Z" fill="#73796B"/>
<path d="M19.0281 37.7291C19.0281 37.5069 18.9942 36.9262 18.9531 36.4385C18.882 35.5993 18.8905 35.5515 19.114 35.5515C19.6171 35.5515 21.458 34.9362 22.5707 34.3961C25.923 32.7688 28.6089 29.6589 29.7982 26.0275C30.0851 25.1523 30.1118 25.1233 30.9079 24.8341C31.2266 24.718 31.7323 24.5008 32.0316 24.3515C32.331 24.2021 32.601 24.12 32.6312 24.1691C32.7379 24.3415 32.3577 26.1413 31.9995 27.1615C30.7763 30.6442 28.6439 33.4441 25.704 35.4278C24.775 36.0547 23.2677 36.8472 22.4673 37.1295C22.2076 37.2214 21.9143 37.367 21.8155 37.4533C21.6211 37.6234 20.4611 37.9366 19.5776 38.0575L19.0281 38.133V37.7291Z" fill="#73796B"/>
<path d="M30.1652 13.2197C30.1652 7.263 30.1213 2.94242 30.0606 2.90479C29.8707 2.78732 27.7598 3.28908 26.6644 3.71191C22.9907 5.12994 20.06 8.03595 18.7484 11.5612C18.6358 11.864 18.5081 12.1119 18.4645 12.1119C18.4211 12.1119 18.2939 11.8211 18.182 11.4659C18.0701 11.1107 17.7998 10.4471 17.5812 9.9913C17.3629 9.5357 17.1843 9.08194 17.1843 8.98292C17.1843 8.65588 18.1866 7.03705 18.9727 6.09446C20.4773 4.29075 21.8857 3.19353 24.1962 2.02591C26.5231 0.849751 28.2754 0.412842 31.024 0.323291L32.9842 0.259358L32.9075 1.85766C32.8653 2.73677 32.8309 7.50926 32.8309 12.4632V21.4706L32.2484 22.0356C31.6668 22.5999 30.4664 23.47 30.2693 23.47C30.2086 23.47 30.1652 19.2092 30.1652 13.2197Z" fill="#5B7D42"/>
</svg>
